{
	"asset":{
		"generator":"Khronos glTF Blender I/O v4.5.47",
		"version":"2.0"
	},
	"scene":0,
	"scenes":[
		{
			"name":"Scene",
			"nodes":[
				0,
				1,
				2
			]
		}
	],
	"nodes":[
		{
			"mesh":0,
			"name":"track"
		},
		{
			"mesh":1,
			"name":"grass"
		},
		{
			"mesh":2,
			"name":"tower",
			"scale":[
				0.11118485778570175,
				0.6700606942176819,
				0.11118485778570175
			],
			"translation":[
				1.748579978942871,
				0.7783589363098145,
				0.27731239795684814
			]
		}
	],
	"meshes":[
		{
			"name":"t",
			"primitives":[
				{
					"attributes":{
						"POSITION":0,
						"NORMAL":1,
						"TEXCOORD_0":2
					},
					"indices":3
				}
			]
		},
		{
			"name":"track.002",
			"primitives":[
				{
					"attributes":{
						"POSITION":4,
						"NORMAL":5
					},
					"indices":6
				}
			]
		},
		{
			"name":"Cube.001",
			"primitives":[
				{
					"attributes":{
						"POSITION":7,
						"NORMAL":8,
						"TEXCOORD_0":9
					},
					"indices":10
				}
			]
		}
	],
	"accessors":[
		{
			"bufferView":0,
			"componentType":5126,
			"count":668,
			"max":[
				4.365725517272949,
				0.7334928512573242,
				2.8352088928222656
			],
			"min":[
				-1.7575048208236694,
				-4.0978193283081055e-08,
				-3.329245090484619
			],
			"type":"VEC3"
		},
		{
			"bufferView":1,
			"componentType":5126,
			"count":668,
			"type":"VEC3"
		},
		{
			"bufferView":2,
			"componentType":5126,
			"count":668,
			"type":"VEC2"
		},
		{
			"bufferView":3,
			"componentType":5123,
			"count":2988,
			"type":"SCALAR"
		},
		{
			"bufferView":4,
			"componentType":5126,
			"count":1161,
			"max":[
				5.122404098510742,
				0.7334928512573242,
				3.454371929168701
			],
			"min":[
				-2.2068419456481934,
				-0.11408156156539917,
				-3.631669044494629
			],
			"type":"VEC3"
		},
		{
			"bufferView":5,
			"componentType":5126,
			"count":1161,
			"type":"VEC3"
		},
		{
			"bufferView":6,
			"componentType":5123,
			"count":1851,
			"type":"SCALAR"
		},
		{
			"bufferView":7,
			"componentType":5126,
			"count":24,
			"max":[
				1,
				1,
				1
			],
			"min":[
				-1,
				-1,
				-1
			],
			"type":"VEC3"
		},
		{
			"bufferView":8,
			"componentType":5126,
			"count":24,
			"type":"VEC3"
		},
		{
			"bufferView":9,
			"componentType":5126,
			"count":24,
			"type":"VEC2"
		},
		{
			"bufferView":10,
			"componentType":5123,
			"count":36,
			"type":"SCALAR"
		}
	],
	"bufferViews":[
		{
			"buffer":0,
			"byteLength":8016,
			"byteOffset":0,
			"target":34962
		},
		{
			"buffer":0,
			"byteLength":8016,
			"byteOffset":8016,
			"target":34962
		},
		{
			"buffer":0,
			"byteLength":5344,
			"byteOffset":16032,
			"target":34962
		},
		{
			"buffer":0,
			"byteLength":5976,
			"byteOffset":21376,
			"target":34963
		},
		{
			"buffer":0,
			"byteLength":13932,
			"byteOffset":27352,
			"target":34962
		},
		{
			"buffer":0,
			"byteLength":13932,
			"byteOffset":41284,
			"target":34962
		},
		{
			"buffer":0,
			"byteLength":3702,
			"byteOffset":55216,
			"target":34963
		},
		{
			"buffer":0,
			"byteLength":288,
			"byteOffset":58920,
			"target":34962
		},
		{
			"buffer":0,
			"byteLength":288,
			"byteOffset":59208,
			"target":34962
		},
		{
			"buffer":0,
			"byteLength":192,
			"byteOffset":59496,
			"target":34962
		},
		{
			"buffer":0,
			"byteLength":72,
			"byteOffset":59688,
			"target":34963
		}
	],
	"buffers":[
		{
			"byteLength":59760,
			"uri":"track.bin"
		}
	]
}
