{
	"asset":{
		"generator":"Khronos glTF Blender I/O v4.5.47",
		"version":"2.0"
	},
	"scene":0,
	"scenes":[
		{
			"name":"Scene",
			"nodes":[
				0,
				1
			]
		}
	],
	"nodes":[
		{
			"mesh":0,
			"name":"track"
		},
		{
			"mesh":1,
			"name":"grass"
		}
	],
	"meshes":[
		{
			"name":"track",
			"primitives":[
				{
					"attributes":{
						"POSITION":0,
						"NORMAL":1,
						"TEXCOORD_0":2
					},
					"indices":3
				}
			]
		},
		{
			"name":"track.002",
			"primitives":[
				{
					"attributes":{
						"POSITION":4,
						"NORMAL":5
					},
					"indices":6
				}
			]
		}
	],
	"accessors":[
		{
			"bufferView":0,
			"componentType":5126,
			"count":668,
			"max":[
				4.365725517272949,
				0.7334928512573242,
				2.8352088928222656
			],
			"min":[
				-1.7575048208236694,
				-4.0978193283081055e-08,
				-3.329245090484619
			],
			"type":"VEC3"
		},
		{
			"bufferView":1,
			"componentType":5126,
			"count":668,
			"type":"VEC3"
		},
		{
			"bufferView":2,
			"componentType":5126,
			"count":668,
			"type":"VEC2"
		},
		{
			"bufferView":3,
			"componentType":5123,
			"count":2988,
			"type":"SCALAR"
		},
		{
			"bufferView":4,
			"componentType":5126,
			"count":1154,
			"max":[
				5.122404098510742,
				0.7334928512573242,
				3.454371929168701
			],
			"min":[
				-2.2068419456481934,
				-0.11408156156539917,
				-3.631669044494629
			],
			"type":"VEC3"
		},
		{
			"bufferView":5,
			"componentType":5126,
			"count":1154,
			"type":"VEC3"
		},
		{
			"bufferView":6,
			"componentType":5123,
			"count":1818,
			"type":"SCALAR"
		}
	],
	"bufferViews":[
		{
			"buffer":0,
			"byteLength":8016,
			"byteOffset":0,
			"target":34962
		},
		{
			"buffer":0,
			"byteLength":8016,
			"byteOffset":8016,
			"target":34962
		},
		{
			"buffer":0,
			"byteLength":5344,
			"byteOffset":16032,
			"target":34962
		},
		{
			"buffer":0,
			"byteLength":5976,
			"byteOffset":21376,
			"target":34963
		},
		{
			"buffer":0,
			"byteLength":13848,
			"byteOffset":27352,
			"target":34962
		},
		{
			"buffer":0,
			"byteLength":13848,
			"byteOffset":41200,
			"target":34962
		},
		{
			"buffer":0,
			"byteLength":3636,
			"byteOffset":55048,
			"target":34963
		}
	],
	"buffers":[
		{
			"byteLength":58684,
			"uri":"track.bin"
		}
	]
}
